# xmcd
#
# Track frame offsets: 
#        150
#        13668
#        27868
#        42373
#        56981
#        71739
#        105205
#        117969
#        123093
#        140715
#        154685
#        168148
#        181030
#        192805
#        207576
#        223223
#        238330
#        254593
#        268043
#        282586
#        300841
#        317178
#        332137
#
# Disc length: 4613 seconds
#
# Revision: 1
# Processed by: cddbd v1.5.2PL0 Copyright (c) Steve Scherf et al.
# Submitted via: ExactAudioCopy v1.1
#
DISCID=59120317
DTITLE=Benny Goodman - CD3_BG In HiFi Part Two - Mr Benny Goodman - Date
DTITLE=With The King
DYEAR=2006
DGENRE=Jazz
TTITLE0=Let's Dance
TTITLE1=Big John's Special
TTITLE2=Down South Camp Meetin'
TTITLE3=And The Angels Sing
TTITLE4=Goodbye
TTITLE5=Sing, Sing, Sing
TTITLE6=Bugle Call Rag
TTITLE7=Shine
TTITLE8=One O'Clock Jump
TTITLE9=Don't Be That Way
TTITLE10=It's Been So Long
TTITLE11=Sometimes I'm Happy
TTITLE12=Goody Goody
TTITLE13=Avalon
TTITLE14=Moonglow
TTITLE15=Memories Of You
TTITLE16=China Boy
TTITLE17=It's Bad For Me
TTITLE18=Goodbye
TTITLE19=That's A Plenty
TTITLE20=Memories Of You
TTITLE21=Can't We Talk It Over
TTITLE22=A Find Romance
EXTD=YEAR: 2006
EXTT0=
EXTT1=
EXTT2=
EXTT3=
EXTT4=
EXTT5=
EXTT6=
EXTT7=
EXTT8=
EXTT9=
EXTT10=
EXTT11=
EXTT12=
EXTT13=
EXTT14=
EXTT15=
EXTT16=
EXTT17=
EXTT18=
EXTT19=
EXTT20=
EXTT21=
EXTT22=
PLAYORDER=
